<mxfile modified="2021-06-18T11:10:41.374Z" host="app.diagrams.net" agent="5.0 (Macintosh; Intel Mac OS X 10_15_7) AppleWebKit/537.36 (KHTML, like Gecko) Chrome/91.0.4472.106 Safari/537.36" etag="6MXGhKoRtivgjivKZBmk" version="14.7.7" type="github">
  <diagram id="Ht1M8jgEwFfnCIfOTk4-" name="Page-1">
    <mxGraphModel dx="1876" dy="982" grid="1" gridSize="10" guides="1" tooltips="1" connect="1" arrows="1" fold="1" page="1" pageScale="1" pageWidth="1169" pageHeight="827" math="0" shadow="0">
      <root>
        <mxCell id="0" />
        <mxCell id="1" style="locked=1;" parent="0" visible="0" />
        <mxCell id="fOJVgubYsdkSzta9YjWY-61" value="Region Layer" style="locked=1;" parent="0" />
        <mxCell id="fOJVgubYsdkSzta9YjWY-62" value="" style="rounded=1;arcSize=10;dashed=0;fillColor=none;gradientColor=none;strokeWidth=2;" vertex="1" parent="fOJVgubYsdkSzta9YjWY-61">
          <mxGeometry x="220" y="50" width="660" height="640" as="geometry" />
        </mxCell>
        <mxCell id="fOJVgubYsdkSzta9YjWY-63" value="" style="dashed=0;html=1;shape=mxgraph.aws3.cloud;fillColor=#F58536;gradientColor=none;dashed=0;" vertex="1" parent="fOJVgubYsdkSzta9YjWY-61">
          <mxGeometry x="260" y="30" width="52" height="36" as="geometry" />
        </mxCell>
        <mxCell id="fOJVgubYsdkSzta9YjWY-85" value="VPC Layer" style="locked=1;" parent="0" />
        <mxCell id="fOJVgubYsdkSzta9YjWY-106" value="" style="rounded=1;arcSize=10;dashed=0;fillColor=none;gradientColor=none;strokeWidth=2;" vertex="1" parent="fOJVgubYsdkSzta9YjWY-85">
          <mxGeometry x="280" y="120" width="320" height="510" as="geometry" />
        </mxCell>
        <mxCell id="fOJVgubYsdkSzta9YjWY-107" value="" style="dashed=0;html=1;shape=mxgraph.aws3.virtual_private_cloud;fillColor=#F58536;gradientColor=none;dashed=0;" vertex="1" parent="fOJVgubYsdkSzta9YjWY-85">
          <mxGeometry x="290" y="100" width="52" height="36" as="geometry" />
        </mxCell>
        <mxCell id="fOJVgubYsdkSzta9YjWY-58" value="Field Layer" style="" parent="0" />
        <mxCell id="fOJVgubYsdkSzta9YjWY-59" value="Public subnet" style="points=[[0,0],[0.25,0],[0.5,0],[0.75,0],[1,0],[1,0.25],[1,0.5],[1,0.75],[1,1],[0.75,1],[0.5,1],[0.25,1],[0,1],[0,0.75],[0,0.5],[0,0.25]];outlineConnect=0;gradientColor=none;html=1;whiteSpace=wrap;fontSize=12;fontStyle=0;shape=mxgraph.aws4.group;grIcon=mxgraph.aws4.group_security_group;grStroke=0;strokeColor=#248814;fillColor=#E9F3E6;verticalAlign=top;align=left;spacingLeft=30;fontColor=#248814;dashed=0;" vertex="1" parent="fOJVgubYsdkSzta9YjWY-58">
          <mxGeometry x="310" y="330" width="260" height="240" as="geometry" />
        </mxCell>
        <mxCell id="fOJVgubYsdkSzta9YjWY-60" value="Private subnet" style="points=[[0,0],[0.25,0],[0.5,0],[0.75,0],[1,0],[1,0.25],[1,0.5],[1,0.75],[1,1],[0.75,1],[0.5,1],[0.25,1],[0,1],[0,0.75],[0,0.5],[0,0.25]];outlineConnect=0;gradientColor=none;html=1;whiteSpace=wrap;fontSize=12;fontStyle=0;shape=mxgraph.aws4.group;grIcon=mxgraph.aws4.group_security_group;grStroke=0;strokeColor=#147EBA;fillColor=#E6F2F8;verticalAlign=top;align=left;spacingLeft=30;fontColor=#147EBA;dashed=0;" vertex="1" parent="fOJVgubYsdkSzta9YjWY-58">
          <mxGeometry x="310" y="150" width="160" height="160" as="geometry" />
        </mxCell>
        <mxCell id="fOJVgubYsdkSzta9YjWY-42" value="Main Layer" style="" parent="0" />
        <mxCell id="fOJVgubYsdkSzta9YjWY-136" style="edgeStyle=orthogonalEdgeStyle;rounded=0;orthogonalLoop=1;jettySize=auto;html=1;strokeWidth=5;" edge="1" parent="fOJVgubYsdkSzta9YjWY-42" source="fOJVgubYsdkSzta9YjWY-44" target="fOJVgubYsdkSzta9YjWY-128">
          <mxGeometry relative="1" as="geometry" />
        </mxCell>
        <mxCell id="fOJVgubYsdkSzta9YjWY-164" style="edgeStyle=orthogonalEdgeStyle;rounded=0;orthogonalLoop=1;jettySize=auto;html=1;startArrow=none;startFill=0;endArrow=classic;endFill=1;strokeWidth=5;" edge="1" parent="fOJVgubYsdkSzta9YjWY-42">
          <mxGeometry relative="1" as="geometry">
            <mxPoint x="780" y="588" as="targetPoint" />
            <mxPoint x="960" y="588" as="sourcePoint" />
          </mxGeometry>
        </mxCell>
        <mxCell id="fOJVgubYsdkSzta9YjWY-44" value="users" style="outlineConnect=0;gradientColor=none;fontColor=#545B64;strokeColor=none;fillColor=#879196;dashed=0;verticalLabelPosition=bottom;verticalAlign=top;align=center;html=1;fontSize=12;fontStyle=0;aspect=fixed;shape=mxgraph.aws4.illustration_users;pointerEvents=1" vertex="1" parent="fOJVgubYsdkSzta9YjWY-42">
          <mxGeometry x="979.5" y="543" width="90" height="90" as="geometry" />
        </mxCell>
        <mxCell id="fOJVgubYsdkSzta9YjWY-111" style="rounded=0;orthogonalLoop=1;jettySize=auto;html=1;entryX=0.5;entryY=1;entryDx=0;entryDy=0;strokeWidth=5;" edge="1" parent="fOJVgubYsdkSzta9YjWY-42" target="fOJVgubYsdkSzta9YjWY-74">
          <mxGeometry relative="1" as="geometry">
            <mxPoint x="136" y="360" as="sourcePoint" />
          </mxGeometry>
        </mxCell>
        <mxCell id="fOJVgubYsdkSzta9YjWY-113" style="rounded=0;orthogonalLoop=1;jettySize=auto;html=1;strokeWidth=5;" edge="1" parent="fOJVgubYsdkSzta9YjWY-42">
          <mxGeometry relative="1" as="geometry">
            <mxPoint x="190" y="414" as="sourcePoint" />
            <mxPoint x="360" y="414" as="targetPoint" />
          </mxGeometry>
        </mxCell>
        <mxCell id="fOJVgubYsdkSzta9YjWY-45" value="" style="dashed=0;outlineConnect=0;html=1;align=center;labelPosition=center;verticalLabelPosition=bottom;verticalAlign=top;shape=mxgraph.weblogos.github" vertex="1" parent="fOJVgubYsdkSzta9YjWY-42">
          <mxGeometry x="90" y="370" width="90" height="91" as="geometry" />
        </mxCell>
        <mxCell id="fOJVgubYsdkSzta9YjWY-46" value="" style="aspect=fixed;html=1;points=[];align=center;image;fontSize=12;image=img/lib/mscae/Docker.svg;" vertex="1" parent="fOJVgubYsdkSzta9YjWY-42">
          <mxGeometry x="140" y="550" width="75" height="61.5" as="geometry" />
        </mxCell>
        <mxCell id="fOJVgubYsdkSzta9YjWY-152" style="edgeStyle=orthogonalEdgeStyle;rounded=0;orthogonalLoop=1;jettySize=auto;html=1;startArrow=classic;startFill=1;endArrow=classic;endFill=1;strokeWidth=5;" edge="1" parent="fOJVgubYsdkSzta9YjWY-42">
          <mxGeometry relative="1" as="geometry">
            <mxPoint x="435" y="270" as="targetPoint" />
            <mxPoint x="435" y="340" as="sourcePoint" />
          </mxGeometry>
        </mxCell>
        <mxCell id="fOJVgubYsdkSzta9YjWY-47" value="" style="outlineConnect=0;dashed=0;verticalLabelPosition=bottom;verticalAlign=top;align=center;html=1;shape=mxgraph.aws3.ec2;fillColor=#F58534;gradientColor=none;" vertex="1" parent="fOJVgubYsdkSzta9YjWY-42">
          <mxGeometry x="430" y="365" width="70" height="80" as="geometry" />
        </mxCell>
        <mxCell id="fOJVgubYsdkSzta9YjWY-139" style="edgeStyle=none;rounded=0;orthogonalLoop=1;jettySize=auto;html=1;strokeWidth=5;" edge="1" parent="fOJVgubYsdkSzta9YjWY-42">
          <mxGeometry relative="1" as="geometry">
            <mxPoint x="840" y="414" as="sourcePoint" />
            <mxPoint x="770" y="414" as="targetPoint" />
          </mxGeometry>
        </mxCell>
        <mxCell id="fOJVgubYsdkSzta9YjWY-48" value="" style="outlineConnect=0;dashed=0;verticalLabelPosition=bottom;verticalAlign=top;align=center;html=1;shape=mxgraph.aws3.internet_gateway;fillColor=#F58534;gradientColor=none;" vertex="1" parent="fOJVgubYsdkSzta9YjWY-42">
          <mxGeometry x="850" y="378" width="69" height="72" as="geometry" />
        </mxCell>
        <mxCell id="fOJVgubYsdkSzta9YjWY-153" style="edgeStyle=orthogonalEdgeStyle;rounded=0;orthogonalLoop=1;jettySize=auto;html=1;startArrow=none;startFill=0;endArrow=classic;endFill=1;strokeWidth=5;" edge="1" parent="fOJVgubYsdkSzta9YjWY-42">
          <mxGeometry relative="1" as="geometry">
            <mxPoint x="510" y="414" as="targetPoint" />
            <mxPoint x="680" y="414" as="sourcePoint" />
          </mxGeometry>
        </mxCell>
        <mxCell id="fOJVgubYsdkSzta9YjWY-49" value="" style="outlineConnect=0;dashed=0;verticalLabelPosition=bottom;verticalAlign=top;align=center;html=1;shape=mxgraph.aws3.application_load_balancer;fillColor=#F58534;gradientColor=none;" vertex="1" parent="fOJVgubYsdkSzta9YjWY-42">
          <mxGeometry x="690" y="378" width="69" height="72" as="geometry" />
        </mxCell>
        <mxCell id="fOJVgubYsdkSzta9YjWY-50" value="" style="outlineConnect=0;dashed=0;verticalLabelPosition=bottom;verticalAlign=top;align=center;html=1;shape=mxgraph.aws3.rds;fillColor=#2E73B8;gradientColor=none;" vertex="1" parent="fOJVgubYsdkSzta9YjWY-42">
          <mxGeometry x="350" y="190" width="72" height="81" as="geometry" />
        </mxCell>
        <mxCell id="fOJVgubYsdkSzta9YjWY-130" style="edgeStyle=none;rounded=0;orthogonalLoop=1;jettySize=auto;html=1;entryX=0.424;entryY=1.083;entryDx=0;entryDy=0;entryPerimeter=0;strokeWidth=5;" edge="1" parent="fOJVgubYsdkSzta9YjWY-42" target="fOJVgubYsdkSzta9YjWY-120">
          <mxGeometry relative="1" as="geometry">
            <mxPoint x="130" y="530" as="sourcePoint" />
          </mxGeometry>
        </mxCell>
        <mxCell id="fOJVgubYsdkSzta9YjWY-51" value="" style="outlineConnect=0;dashed=0;verticalLabelPosition=bottom;verticalAlign=top;align=center;html=1;shape=mxgraph.aws3.management_console;fillColor=#F58534;gradientColor=none;" vertex="1" parent="fOJVgubYsdkSzta9YjWY-42">
          <mxGeometry x="70" y="540" width="60" height="63" as="geometry" />
        </mxCell>
        <mxCell id="fOJVgubYsdkSzta9YjWY-144" style="edgeStyle=orthogonalEdgeStyle;rounded=0;orthogonalLoop=1;jettySize=auto;html=1;startArrow=none;startFill=0;endArrow=none;endFill=0;strokeWidth=5;" edge="1" parent="fOJVgubYsdkSzta9YjWY-42">
          <mxGeometry relative="1" as="geometry">
            <mxPoint x="1030" y="370" as="targetPoint" />
            <mxPoint x="930" y="259" as="sourcePoint" />
          </mxGeometry>
        </mxCell>
        <mxCell id="fOJVgubYsdkSzta9YjWY-161" style="edgeStyle=orthogonalEdgeStyle;rounded=0;orthogonalLoop=1;jettySize=auto;html=1;startArrow=none;startFill=0;endArrow=none;endFill=0;strokeWidth=5;" edge="1" parent="fOJVgubYsdkSzta9YjWY-42" source="fOJVgubYsdkSzta9YjWY-52">
          <mxGeometry relative="1" as="geometry">
            <mxPoint x="770" y="258.75" as="targetPoint" />
          </mxGeometry>
        </mxCell>
        <mxCell id="fOJVgubYsdkSzta9YjWY-52" value="" style="outlineConnect=0;dashed=0;verticalLabelPosition=bottom;verticalAlign=top;align=center;html=1;shape=mxgraph.aws3.route_53;fillColor=#F58536;gradientColor=none;" vertex="1" parent="fOJVgubYsdkSzta9YjWY-42">
          <mxGeometry x="848.5" y="216" width="70.5" height="85.5" as="geometry" />
        </mxCell>
        <mxCell id="fOJVgubYsdkSzta9YjWY-163" style="edgeStyle=orthogonalEdgeStyle;rounded=0;orthogonalLoop=1;jettySize=auto;html=1;startArrow=none;startFill=0;endArrow=classic;endFill=1;strokeWidth=5;" edge="1" parent="fOJVgubYsdkSzta9YjWY-42">
          <mxGeometry relative="1" as="geometry">
            <mxPoint x="440" y="520" as="targetPoint" />
            <mxPoint x="660" y="586" as="sourcePoint" />
          </mxGeometry>
        </mxCell>
        <mxCell id="fOJVgubYsdkSzta9YjWY-53" value="" style="outlineConnect=0;dashed=0;verticalLabelPosition=bottom;verticalAlign=top;align=center;html=1;shape=mxgraph.aws3.s3;fillColor=#E05243;gradientColor=none;" vertex="1" parent="fOJVgubYsdkSzta9YjWY-42">
          <mxGeometry x="686.25" y="540" width="76.5" height="93" as="geometry" />
        </mxCell>
        <mxCell id="fOJVgubYsdkSzta9YjWY-54" value="" style="outlineConnect=0;dashed=0;verticalLabelPosition=bottom;verticalAlign=top;align=center;html=1;shape=mxgraph.aws3.certificate_manager;fillColor=#759C3E;gradientColor=none;" vertex="1" parent="fOJVgubYsdkSzta9YjWY-42">
          <mxGeometry x="686.25" y="240" width="76.5" height="61.5" as="geometry" />
        </mxCell>
        <mxCell id="fOJVgubYsdkSzta9YjWY-137" style="rounded=0;orthogonalLoop=1;jettySize=auto;html=1;strokeWidth=5;" edge="1" parent="fOJVgubYsdkSzta9YjWY-42">
          <mxGeometry relative="1" as="geometry">
            <mxPoint x="990" y="414" as="sourcePoint" />
            <mxPoint x="930" y="414" as="targetPoint" />
          </mxGeometry>
        </mxCell>
        <mxCell id="fOJVgubYsdkSzta9YjWY-55" value="" style="outlineConnect=0;dashed=0;verticalLabelPosition=bottom;verticalAlign=top;align=center;html=1;shape=mxgraph.aws3.internet_3;fillColor=#D2D3D3;gradientColor=none;" vertex="1" parent="fOJVgubYsdkSzta9YjWY-42">
          <mxGeometry x="990" y="380" width="79.5" height="50" as="geometry" />
        </mxCell>
        <mxCell id="fOJVgubYsdkSzta9YjWY-74" value="" style="shape=image;verticalLabelPosition=bottom;labelBackgroundColor=#ffffff;verticalAlign=top;aspect=fixed;imageAspect=0;image=data:image/png,iVBORw0KGgoAAAANSUhEUgAAAkcAAAI8CAYAAAD7pg/1AAAACXBIWXMAAC4jAAAuIwF4pT92AAAgAElEQVR42u3dy3Ubx6I20M9neU7+A/RUcATijUBwBOKJQFAEpiIwFIGpCARFYCoCgRGYjMDktDE4QgT6ByjYtKwH8e7H3mtx6VxfkSKqq6u/enTVD58+fQoAAEv/UQQAAMIRAIBwBAAgHAEACEcAAMIRAIBwBAAgHAEACEcAAMIRAIBwBAAgHAEACEcAAMIRAIBwBAAgHAEACEcAAMIRAIBwBAAgHAEACEcAAMIRAIBwBAAgHAEAIBwBAAhHAADCEQCAcAQAIBwBAAhHAADCEQCAcAQAIBwBAAhHAADCEQCAcAQAIBwBAAhHAADCEQCAcAQAIBwBAAhHAADCEQCAcAQAIBwBAAhHAADCEQAAwhEAgHAEACAcAQAIRwAAwhEAgHAEACAcAQAIRwAAwhEAgHAEACAcAQAIRwAAwhEAgHAEACAcAQAIRwAAwhEAgHAEACAcAQAIRwAAwhEAgHAEACAcAQAIRwAACEcAAMIRAIBwBAAgHAEACEcAAMIRAIBwBAAgHAEACEcAAMIRAIBwBABwZD8qAmBXqkF1luS0/J8P/3e+8d8e+pjk5hv/7WM9r2+UNLBPP3z69EkpAOuEn+GDkLP68+kRfp3bB8HpY5KZ8AQIR8C+QtAqAD38etKij3Cb5K4Ep1mSm3pef3RlAeEIeGwYGiUZtTQIPdb9g7A0M8IECEfAwzB0luS8BKJnPS2GxSooCUuAcAT9C0OnD8LQeZITpfIv9yUoXZWwZBoOhCOgY4FoWILQefo7OrSN9yUoXQlKIBwB7Q1EqxGiixznDTJBCRCOgEaEovMk4yTPlcbevSsh6UpRgHAENCsQDbMcIRrHGqJjuE8yTTKt5/Wd4gDhCDheKFpNm1lH1BzvSkiaKQoQjoDDBKLVWqJJurkHUVfcJrms5/VUUYBwBOwvFF2UL1Nn7XGf5DLL0SQLuEE4AoQiikUJSZdCEghHgFCEkATCESAU8d2QNKnn9aWiAOEI+HowGsdC6765T3JhryQQjoB/hqJRllMtdrLur+sSkhx6C8IR9DoUDUsosps1K2+ynG6zHgka4D+KAA4ajC6S3AhGfOaXJHdlihU4MiNHcJhQdJblUROm0Pie6yRjR5LA8Rg5gv0Ho0mSPwQjHulZkptSb4AjMHIE+wtFRovY1m2Sc6NIcFhGjmA/wWgSo0Vs72mWo0gXigIOx8gR7DYUDZNcCUXswXWWo0jeaIM9M3IEuwtG51m+iSYYsQ/PsnyjbaQoQDiCNgSjyyS/x9Ef7NdJkg8Wa8N+mVaD7ULRMKbROA7TbLAnRo5g82A0imk0jmf1yv+ZogDhCJoQjMZJPsQ0Gsf1JMnMztogHMGxg9E0yVslQUOcJHlrHRLsjjVH8PhQdJrl+qJnSoOGepfkwjokEI7gUMFoFuuLaL7bJCMBCTZnWg2+H4zOktwJRrTE0yzXIQ0VBWzGyBF8PxjNYuE17bPIcgTpRlHAeowcgWBEN51kOYLkVX8QjmAnwWic5cGxghECEghHIBjFq/oISCAcAYIRAhIgHIFghIAE/IO31SB/Lb7+Q0nQA95ig+8wcoRg9PdbadAHRpDgO4wcIRh5XZ9+WiQZ2kkb/s3IEX0ORqeCET22GkE6VRQgHIFgBEtPY0oZhCMoruKsNEiSp9WgmioGEI7osfIgeKYk4C8vqkE1UQywZEE2fQtG49jLCL7mZT2vp4oB4Ug4oj/BaJTkg5KAr7IHEghH9CgYDZPcxAJs+J77JGde8afPrDmiL64EI3iUJ0mmigHhCDqsGlSX8WYarOO5Bdr0mWk1uh6MzpP8riRgIz/X83qmGBCOoDvBaBjrjGAbjhihl0yr0WVTwQi2chLrjxCOoBvKegkbPcL2nleD6kIx0Cem1ehiMDpL8oeSgJ1ZZPl6/52ioA+MHNFFU0UAO2V6DeEI2qpMp3ltH3bvmek1+sK0Gl0KRqbTYL9Mr9ELRo7okqkigL0yvYZwBG1RhvtNp8H+PSubq0JnmVajC8FoGJs9NsmiXI+7z76S5O5bUzJlavS0/J/Dz77OXONGXWObQ9JZPyoCOmDioXnUh+SshKFZkpttHpj1vL55RBAeJhmVL4HpOE7KfWeBNp1k5IhWqwbVKMkHJXFQ10muksy+F2YOVAfOkpyXL1Orh/WTxdkIR9C8cHTjgXgQ70sgumryVEo1qE4fBKXnLtv+g3I9r0eKAeEImvMgHCd5qyT25jbJZdMD0Tfqx7CEpIskT1zOvfm5ntczxYBwBM0YIbjx0NuLd0mmXXrglenXixhN2of7el4PFQNd4lV+2spowG4tSij6qZ7X466NBNTzelbP6/MkP5XPye48KaO40BlGjmjjKMBplq+Ge0tpN94kmfTptewy5TZJ8sLl3wmjR3SKkSPa6EIw2onVSNFF3/arqef1XT2vx1mOJF2rClt74tw1usTIEW3r8Rs12t5tkguLaP9Rr0ZZHothqnZzNoakM4wc0TZGjbZ7eL2q5/WZYPRPZU3SMMlrpbGxk9gUko4wckSbevdGjTZ3nWRsw75H1bOzLEeR7J+1PmuP6AQjR7SJUaPNvKrn9Ugwepx6Xt/U8/osRpE24c01OsHIEW3pzRs12qAXn+S8CUd8tLjejbLcGVy9W6PeGT2i7Ywc0RbnHlBreZ/kTDDaTlmbNcxyETuPY/QI4QgOZKIIHu1NPa/PvTW0s4D0sUyz2Tzy8YQjhCPYp2pQnccr1o/1sp7X3hjaT0gaJ3mlJB7lWVnYDsIR6IUezSLLA0CnimKvAekyyUsl8ShCOq1lQTaNVo55+FNJfDcYjawvOmi9HMVC7cf4f6Z3aSMjR+h9CkasqSzUHpXy5+vGigDhCDSuglF/AtKNgKRzg3AEB1UWYpu2EIyaHpDOlcRXPbEwG+EIdmusCL7K5o7NCUizWKT9LUaPEI5gF8qO2M+VxBe9dHBs4wLSNF7z/2qQVwQIR6BB3ac3XtdvbEC6jI0iv+SkTJGDcARbMhT/b+9t8Nj4gDSOo0a+ZKwIEI5gC2Vvo6dK4h/uPWBaYxRvsH3ueZkqB+EINmQI/gtlYjO9dijXSR12XyMcwc573vztlTfTWheQZkneKAn3Ne3k+BAapQy9/09J/OW6ntceKu2tzzcxRbyyqOe1qTVawcgRTWPo/cHDJNYZtZ3r9zdvrSEcwYZGiuAvk3pe3ymG9irToa+VhPsb4Qi2oWe5dFv2zaH9LrN82xD3N8IRrKecweQstSX7GXVEeXvN9Vx6UrbqAOEI9CrX8s7xIJ0LSFdJrpVEElNrCEeg0dzARBF0ktEj9zkt8aMigEZ50+VF2GVKZfiNv3LX1c9fz+ubalC9S/JCOIJms88RTXpwzpI863ERLJIMu7ITdtmz6rw8DM+y3n4/10luksySzDpUJsMkf7rb85M3MWky02o0Sd8by6u2h4BqUJ1Wg2pcNj/8X5K3WY6UrLsR4rMkvyT5Pcn/qkF1VQ2qcdsvcAkE79zqRo8QjuCxpj3//JMWh6JhNaimJeC+ze53hX6e5G01qD5Wg2rS8kNMbdGwHEkE4Qge0aueJXnf04//uo3TDGWk6DLLqaIX2f9WDCdJfk1y19aQVDaG7PubayMtHsIRPN64hw+ON/W8nrQwGJ1nOVL0yxH++VVIuqkGVRsftH0fPXLeHI1mQTZNffCOS1Dq8gLt90ku27anURmtmWY51dWYgJnlcSsfW1SOd0me9Pg2/9l+XghHQBdC61mSq4Y+1G+TnLdlerIaVJMsR7/66pUjcmgq02rAOsFoluaOdjzNcpqtLYt9pz2vUkN3FcIR0OZgNE7yR5p/9t1JklkbAlIZ4brtcbXyxhrCEdDaYDTK8vX8tmhNQEq/R4+EI4QjoJXBaLXGqG1WAanpr/pf9bh6nbR8vyqEI6CHwei0PLxPWvoRTrJcI9VYptaMHiEcAe0yTftfNX9aNqlsslmP69jQbYZwBLRC2eDxeUc+zi8N3yiyz1NrwhHCEdCKYLTa5LFLGvt5er4Romk1hCOgFS7T3nVGX/OkbLrYVH09a82CbIQjoNmqQTXM8gDZLrpo8NtRNz2tckN3HcIR0HSTDn+2kyQXwlGjPHHLIRwBjVVGVV50/GOOhSNAOALaHhx26Ul5E69R6nnd23DU8DcJEY4A4cjnPKJbVRCEI6A5vfdhlqfa90FT92/6qCaCcAQ0x6hnYfC8gb/WrKd1b+j2QzgChKPjs/mgcATCESAcNfzzemMNhCOgQfq230wTR46sOQLhCGiCalD1cYrpxJUHhCPga3p5vlVPQyEgHAHCUWs+952qCMIR0AxGUBqgntfCEQhHAADCEQCAcAQ02kwRHF85wgUQjgCOpmn7CglHIBwBQsLx1PPajtSAcAQICcXClQeEI+Bbbnv2eZsYCIeqIQhHgLBwLDPhCBCOgLaFBZ+3H+4UAcIRICwc16Ke1038vCPhCIQjoCHK0RV9WXd01dDf61RNBOEIaJapcHRUT1VBaIYfPn36pBSAVIPqNMspjpMOf8z7el4PG1j2Z0n+6GO9q+f1D+4+msbIEbB6SH1Mc0dVdmXa0N/rTA0E4QhopkmHP9siyaVw1Cj3bjmEI6DRysLsNx39eJdldKyJRj2tcnfuOoQjoA0m6d7xGvf1vJ40+Pfr62Lsj243hCOg8croyrhjH6uxn6caVOc9rm4O/0U4AloTkK6SvO/Ix3nT0E0fV0Y9rmp37jaEI6BNxmn/xpC39by+aPjv2OeRI+EI4QhojwfTa21df7RIw0dlqkE1TPKkx9XMtBrCEdC6gHRTAkbbAtIiyajBb6et9HnUaNGC64NwBNCJgLQKRm0YlRj3uGoZNUI4AgQkwehvZUqtz+epCUcIR0BnAlJTF2nfJhm2ZMQoSS56XqXu3FU01Y+KgIb2qsfl4dHlnvX7LHdtnrUpIFWDapTlMRwvGvSrvWnBW2mfO+/5bW7kiMb64dOnT0qBJoWi0ywPP33Wo4/9rp7X4xZeq/MsD3I9OeKvcZ9k3KaA+SD8v+3zvV7P6x+0eDSVaTWaZtqzYJQkL6pBNWnhw+0qyTDJ6xx+LdIiyet6Xg/bFoyKcc/v89tAgxk5okm96VGSDz0ugp/Kwa9tvHanWU6DXmS/I0mLLKf0Ltv6Grh6nqSd06D0iJEj9KabY9LWX7ye1x/Lwa7DJC+z+6NH3id5Wc/r03peT1q+P87YrW69Ec1m5Igm9ahn6d+U2udaO3r0het5muXbbaMkZ2te2+vyAJ0lmXVls8Dy+v6f7vbu1HO6ydtq0CyTdGRkoQSaq/L1MDCdfWtEoeO7Jk9U8dwLRjSdkSOa1KuexciRXnV36/co1holLX07k36x5ogmuVIESZYLjumeiSJIspwqBeEINJpreV5GGeiIsieUUVH3OcIRrKcc+7BQEkmMHnUpGJ26nn+5NWWMcATrM7W29LSNG0PyRZMkTxRDEqNGCEeg8dzSRXn1m5aqBtVZkl+UhM4PwhFoPHfjJMvjVGhnMDp1/f5h0dKjXhCO4LjKHjfvlcRfnplea61JkqeKQccH4Qg0orv3a5meoSXK22mm09zXtJRNIGnig2UYRyx87j7JWcd3j+5S/b3Jfg/gbZtFPa9PFQNtYeSIximv+ppa+6cnet6tCEan5ToJRv+k7iIcgcZ0L55Vg8p+Oc12GeuM3M+0nmk1mtwD/5+S+KKX9byeKobG1dlJkl+VxL+YUqN1jBzRSN5a+6a3ZcEvzQlGY8Hoq4waIRzBDk0VwdfLxhtsjQpGb5XEV5kKpnVMq9H0B89dHL3wNYsko3ImHcepn2dJ/lASX3Vbz2shntYxckTTTRXBV50kmRlBOmowmikJ9y/CEWhcBSTBaDmV9ke8sv8tC/cvwhHsgT2P1gpIFmkfLhhZY/R9VzYtRTiC/bGg83EB6ffy4GZ/wWgiGLlv6T4LsmnLQ+kuFmY/1pt6Xl8ohp3XwWmSF0riUa7reT1SDLSVkSPaYqIIHu2XalDNykaabB+KhtWguhGM1mLUiFYzckSbHlIfYwHsOu6TnHvVf6s6N4qz0taud/W8HioG2szIEXqj3fUkyR9lnQzrB6PLJB8Eo7Wpb7SekSPa9LA6TXLnYbWR6yTj8vYf365nZ1m+gu4A2fUZNaITjBzRGuW1YKNHm3mW5MYo0rfDdymfPwSjjalfdIKRI1r3AIvRo23dJrmo5/VMUfxVr85L8PZG5OaMGtEZRo5oFaNHO/E0yYdqUF1Vg6rXD7NqUJ1Vg2qW5HfBaGsTRUBXGDmijQ80o0e79S7JpE/rkUoonMTr+bti1IhOMXJE6xg92rkXSf6sBtW06yNJZc+iaZI/BaOdmigCusTIEW1+0N3FVMg+vE9y2aU1SWVN0UWWC9PZrdt6Xjv4GOEIGvLAG8c5V/t0n+UI3VUbp9zKKNi4fAnR+/Ozxf0IR9CsB+DMaMBBvM9yp+hGn7ReAtF5CURex98/Z6ghHEEDH4ajLHcx5nBuHwSlm4bUgVEJRQLRYf1kY1GEI2hmQJrG4tpjWSS5STIrf97s82FZRobOytcoRg2P6XU9ryeKAeEImhmOvNrfPNdJPpbAtPozSfK19SnlOj5c2Dsqf54lORWEGuU+yVmTp1hBOEJAGlQXSX5TEnAQ/63n9ZViQDiC5gekWYwuwL69r+f1uWKgy2wCSZdcKALYq4X7DOEIWqS8OfVaScDeTLydRh+YVqNzqkF1E690w67Z04jeMHJEF40VAezUwn2FcAQtZnoNdu7CdBp9YlqNzvL2GuyEt9PoHSNHdNk4y+kAYDP3MZ2GcATdUaYBNOywuXO7YCMcQfcC0lWSN0oC1vaqCQcLwzFYc0QveL0f1mKdEb1m5Ii+GMX6I3iM25iORjiC7ivrJkZKAr5pkWRsnRHCEfQnIN0keakk4KvG1hmBcET/AtI0yTslAf/yqrzAAL1nQTa9VA2qqyTPlQQkSd7V83qsGGDJyBF9Nc5y4Sn03bVgBMIRPFygfa806LHbJF7ZB+EI/hGQzuMVf/rpPsnIm2kgHMHnAekm9kCifxZxNAgIRyAgwV/BaOSVffg6b6tBUQ2qsyR/KAkEI+g3I0dQ2CQSwQgQjuDfAWkqICEYQb+ZVoMvKFNssyQnSgPBCPrFyBF8gUXaCEYgHAECEt1yLxiBcAT7DEh20qZNbpOcCUYgHME+A9JZnMVGO1zHztewFQuy4ZGqQXWaZJrkudKgod45RBaEIzhGSLpM8ouSoGFe1fP6UjGAcATHCkjjJG+VBA2wSDKu5/WVogDhCI4dkOyFxLHdlmBk4TXskAXZsKHyQBrGQm2O4328qg97YeQIdsA6JA7M+iIQjqAVAek8y7fZTLOxL/dZTqPNFAUIR9CWgHSa5CrJM6XBjr0vwcj+RSAcQStD0kWS35QEO7BIclHP66miAOEI2h6QzrKcZnuqNNjQdZajRXeKAoQj6FJImiT5VUmwhkWSiUXXIBxBlwPSWZLLWIvE9xktAuEIehWSLpJM4o02/s1O19AQNoGEAyrTJMMk75QGD7xJMhSMoBmMHMGRVINqlOUokqm2/jKFBsIR8IWQNC4h6YnS6A2bOYJwBDwiJE2SXMR6pK6Hook9i0A4Ah4fkE5LQBKSusWr+SAcAUISWY4UTZNcOvYDhCNgtyFpHGuS2haKTJ+BcATsOSiNY+F2010nmQpFIBwBhw1JoyxHk54rjcZ4l+XU2Y2iAOEIOF5IGmY53TaO0aRjuM/ySJip9UQgHAHNC0rnSc6TvFAae7VIclUC0UxxgHAEND8knZaQdB7Tbrv0PsmVtUQgHAGCUl8tksyyHCW6Mm0GwhHQzaA0KkFpFGuUvuS+hKGZA2BBOFIK0L+wdFZC0uqrjxtNrkaHZlmODt2pGYBwBHwellZ/dnFk6TbJTQlDN167B4QjYJ2wdPogKA3L/37aoo9wneSuhKEbb5YBwhGwr9A0LGFpVP7T6s9nB/5VFiX4JMuRoI/l/74zPQYIR0ATw1OSrEafPvfw7zx0U0LO52YP/443xwDhCADggP6jCAAAhCMAAOEIAEA4AgAQjgAAhCMAAOEIAEA4AgAQjgAAhCMAAOEIAEA4AgAQjgAAhCMAAOEIAEA4AgAQjgAAhCMAAOEIAEA4AgAQjgAAhCMAAOEIAEA4AgBAOAIAEI4AAIQjAADhCABAOAIAEI4AAIQjAADhCABAOAIAEI4AAI7gR0UAAHxNNaiGSYZJbup5/bEPn/mHT58+ufIAwCoMnSUZJxklefqFv3Kd5CrJtKthSTgC2tJgj77zV3rTq4U93WPDJNMkzx75LYskl0kuu3bvCUdA0xvscZK3j/zr7+p5PVZqsNF9dpnkZINvv00yruf1jXAEcJhGe91G6ud6Xs+UHOylA/I1iySjrgQkC7LZ5CYa59/Dru+TXNXzeqqUAFrTpp/vIBglyxGnWTWohl2YYvMqP4+9gc6qQXVTbqIvzUc/T/K2GlSzalCdKjGAxrfrp1muMdqVkywXareecMSjglGSWb781sLnniW5E5AAGm/TNUbffAY84uUJ4YhO9Cyu1ryBOtN7AOhw2/5iTz/+Qjii6y6SPNmw9zBWfACNdL7Hn/287bMHwhHfM27ozQfA5kYt//nCEcdRNgR7ssWPeK4UARppuOeffyYc4eb5dsACoFnOFIFwBAD87UQRCEdsZuuNvOp5facYARrnWhEIR2wWbG6y3BJ+U7dKEaCbnd/vaHXHWDjie6ZH+l4A9mfW8p8vHHFUk2w2enQvHAE01j436r1t+5IK4YhvKgcIjtf8tkWS8y4cPgjQ0bb9Lsm7Pf34y7aXj3DEY26iqyT/zeNGkBZJRmW9EgDNNdnDz7yt5/VUOKJPAWlYehqLr4Si10mGghFAK9r1uySvdvgjF9nuVIXG+OHTp09qCGurBtVZktXZOR8FIvZY19ZtpH6u5/VMycGj77FpdnMI7csujBolyY+qBRv2OIQhgG605+NqUH1M8suGP2KRZFxmGDrBtBoACEgXWa4tvV/zW6+TnHUpGAlHAMAqIF3V83qY5GWS99/4q4ss15/+XM/rURdPQjCtBgA8DEnTlH3qqkE1+uz/3Ys1psIRAPC1oDTr4+cWjrZQDaphkrPydVr+XHn24H/f5u9zbD4mucny3Jk7b9U0+poOy9fKXZKLJmxuWQ2qVX1b9eoe9u7O8veJ2/f5+4yjVd1b/Xljo87G1b1huZbak+Ncg9V9/6X7/2vX4O7B142XVbrBq/zrN17npfEaPXgAbeu6NHBXGrejXNPRg+v6vWv6qp7Xl0f8PVdfT3b0o2+zPANplmTWxLDU1Vf599ie3D64nlfu8u+GodX9f7bjNn11DbTpwlFnH54X5eZ5coB/cpHlmTdXTWnYypzzh3W+p57XP2zQSF1+1jv7kvsk03peT7b4PKflel4kebrmt7/e5t/e4Pccl6+nB7rc7x/Uv48NqX+dCUfak8YEovERrsG0ifWyGlSzR7S7jWwjhaPjVJjVQ+nZEX+N1eGtl8d8UB0oHN2t2VD937rD1w8eTOMteoh7v/FLeY+zm03Ztm3QJ8d+E6UL4Uh70phrsEmHaNfX4LIEpaZ0PoSjL/Aq/xduoPKgfnvkhiwlLPya5K4aVNMyktBV6/bgTte4pqfVoLpM8meWm5ydNLTujUpD9eHIwSiljF4k+bPUvaHWoTPtyf/6dE0/uwZPG3ANfitt+qTjbbpw1JEb6PzBDfSkYb/e6kHlhlr/ul5kuVDylwb/jmcPQtGzBv6KQtJmQbep7cnqmt50uT35LBQ1sU1fdXwn7hjhqIk30LA8mH5vaCP2pRvqphpU56rvo67rb2nuSNFqROuPhoairz1QL9Sw79a7D9qTo3c23rblGlSD6u4L+wkhHB11VOGmJQ+mh54k+b0aVFdGkb54Xc+bfl1LQ3iTBo9ofaMx/60aVDdGkbQnDbwGkxZ1Nj6/Bh+qQXWpTReOjt1jv2ryqMIjPc9yWFaP45+N4+9Nvq5ltKgNIwvf8rSMOIzVOe1JQ67BLMuRsDb7JcmsvFGHcHTQm+is9O6ed+QjnZQeR++nOqpBNW1y41ga8DaOFn2r7r0t5d7XOqc9acY1uEv7Rou+1fGY6XgIR4e8ic6z3JjrSQc/3m89f0hNc/w3vB7zEH3aweJ/UabZTntW57Qnx78G4yyn0U46Vv6rjsdlEI4OcBP93sGb6POH1LSHD6lDBqObDX6/sw4/RD/v7Z72pM71pT1p7Dqkcg3edryq/dLnTu8x9eJstQPdRIv889yqz63OShru+SH5IslZNahGfdjobc/BaHVN7/L3uUlXa/5+q2C074fo9TfqXvL3eV37HLlaBaRO172etSfPm3hNexKMHobU1PN6LLIIR224iVY7CM+yPD/nbs3fa5S/z/TZ9QPraZY74Z734NruMhjdf3ZNP275++0rGC3Kz73KBgddlrp3VurHsz3Uvc4GpB63J1f55+HGgpGA1GmdPj6krAn4fcc/9l12fE5ReSV6XL522Qt8t4ub6UDHh6xbEV9l+XbQLh5K0yy387/Z4TXdRzC6Lr/ndIe/5+r8tosd173bJDsJSE05PkR7spv2RDDaypt6Xl/suExncXxIf8LRjh9OiyzPw9n7mUTl5p/ssFHbuqI2NBw19pqWwDHbYQ/+XQ5wxlm5zpMdNpTv63l9voPf6+jhaE/tyfQA17Rx7cmW1+APYxp5ueMOknD0BZ1ckF0eTlc7asjeJRnW83pyiGmCel5P63k9TPKyNKLb+tVu2v++efd8Ta92FIyuk/xUz+vxIQ5/ref1rJ7XoyQ/ZznFuK3nXTgaYQ/tyVmpe3fak7U7HCzfYrMPknC0kekOekr3pQc6PsbaidIzGCZ5v4vysJvxP8LG3oJuCQPb9sIWSf5bz+vRIR6gXwlJwxIid/EwHWlP/tGe3GlPNupwdPnNwLXLw9BPmk8AAA//SURBVE7awtG6D6eLbL8h26p3d9SeSj2vP5ZpiW17fSelge+z1/sOG6U3t+0mlLel7l0du8DK0Pj/ZftRpNZuL1GmpbrWnvy3Te3JjjocXfNEmy4crXMTDbOcX9/Gy2ONFn2n1zfa8iH1rKe7aC9Kj31ygH9r28bqXT2vz44xsvCNuneT5Zttt1s25K3bzK60J9v+3q8a2J5ctaU92VGHo6ueWzIhHD3WZTYfel1kxwvdGviQmvRsem2R5RtTe++xl97tNuuMXjX1Nd0y4nCW5QjIpl60cHptm/Zk1dG6bOg1bUt7ctmANuQ6y+nI1w++3pX/vjjy7zc1vbYfndnnqDS8z7e4AUa7fJV7Xw+p8jlnGz6IT7IcWRv3oG4f7JqWB8Q2vejGhvLP6t+4GlTJ5ntLXZYHctfbk2RP2wn0qT0pU5rHmE57X8rk6jGjuOX+H2W5x9Shz9g7KW3PRJzZrS6NHG3zcLloejB62KCVG3HTHt+LDiyQbVrYnWwxwvC6DcHoYUDK5ot6n7boMM1tRixeNj0YtaQ9mRy4zXid5Qsb5/W8vnzs9HY9r+/KW4HnSf5flnuw3R/wd//VCzfC0bd6GJu+TfKqTQ+nBw3aOJsP6XZ97dH5oYJRaZQ2HUl519L9QMZbPEwb/3lLe7LpFGlb25PzLdqTyR6uwSSHO4vwTf7e2uNu27IsU6lnJWwdatqtje2IcNTgivGuqWsCHnET3mTz40FGHa7Trw7ca9+07t22NaRu+TBtw+G7m17T9y1uT+62aE+e7WH0aHyAj32f5P/qeX2x6wXzJSRNSki6PsBneWH0SDj6vIcx2rDBvU/LR1BKCHizwbdedbQ+Xx/y4bTFqNEiybjNZ4+Vh+kmD7DbJn+uLduTcZtvni3ak52GmS1nAh4dZLPcXuFm3/dJ2Vj1zQEuYR/fRt6bLizI3rRCjLtwMGY9ry+qQbXOoZAf0839MRZHeDht+u9N2rLG7Tt176oaVD+tWQ5NH1nRnixfD183nLyoBtWudv3e90P+4GfElXK9yX7PhRuXa9C5A5+Fo8167s83vDlmXbmI5bPMel6XL4+wP9AmDex9W6devtYzTkfWO2zRnrzvUntS6vWHDb7vfNvwW/Y1errHz3a0w3PreT0tb3vuKyCdlGvQxc7vwbV9Wm3TOfKJS98p94de2Lxh73rTQEWz25NOTWeUoHd9pHLY5/3x7th7iZXF+q8bWIfpWDgab3iD3Ln0nXKMsLtJI3TdsRGGrtGebHdPPdnBgaj7erg35gWI0pHb1yLt5zaF7Hk4KkPgTw9009Nc90d6dXq0wfdculzakzbYYvTofItrcJb9LcRu2pqwbbZOOFbAFI5aYpOH03ujRp1z8GC0YSN+34TDZNGe7DnMj7b49/b1UH/TtBcgSlC7aFBdpufhaOqSC0dHqnuCkfakVUqYX3d049mBr8H3LNLQ0b0y4r2PnbSHbmfhaK2bRM+9c26P1HP3IBWO+tKerP0Zt9gQch/nqF02/NX2i+x+eu3O7by9Vr7KXxacrTutMXO5O+dYgWPdRaf3XdjXqKs2bE8+liMuum6Txb2jddvbHSzkbmWnpOwVNsxyCnO4gx85i7WN/Q1H2exkb6NG3XOswCuYd8vZhnXgV0X3RcMDfc/3tGJN2IOzMmmQtk6rbdKY6bl3zDFGYzacMhCOuteesNugs49roENM78LR2kO9pjU657otdU8w7157ws6DznAPv4dOCb0LR+vefLcudefctaXhF8w7+TDn604aEI4Wtm2hj+Fo3Z6eg/iEo2NZuFSda0/4jgbs0qxDQi/DUVcfpHSPRpo+Otvz39fmIxy5URA6oNNOdvzztPkIR/TSsaZKrU8BEI6AB4xYAQhHnWDBJUB/aPMRjh7BVAjHMlQE9Mwi64+w7nrfMm0+W/lREcBePVEEjbfu+rVNHv59ctGAw151SuhlOJplvROcn7nU7Mjdut9QDaozG0E22k2S52v8/ZN6Xo8U21ED6nc7JdWgOm1ASKOlerMgu5x8DAcPR3qx2hMeFVB3TYCld+FotsH3mIPmWI24Rrp77YlrevxOx/ecK1Y29WOPbqTzOKWZLdXz+mM1qBZZb9M6D9LutSejJFNF1+xw1JaptWpQjbObEeabel57zvU1HNXz+s4DiiO6yXrr2J5Wg2roIEztCV+9BrNqUO36x56UTnFjQ2w1qM7K7/d0hz/zdT2vJ2rVdtq85mi25t9/UioiHLruJYb4u9ieCEi7dbuHn9n0kHC5y2AkuAtHmz6gLlxyjlT3xorNNWXn1+AxIbaR7X4J1/t4k9obesLR+r33alDZOZWt1PN6luVeN+t4auRSe8LBw1GSTBp6naYtK0fhqCUPqJsk92t+20mMHnG8Bkjd057w9WtwtUGn47HXqVGLlKtBdZn9bRBrQXafw9EWleBCb48j1b0X9sfRnnCUB/uzalBNGhKMxkl+2dOPv/Xih3CUbDYsqbfHLnq50w17uVOlpz3h4OEoSX4tweSYwegsy0XYTarDfEGrz1ar5/VNNahus/5q/1+rQTXtSsIuPdfHrmf56CiLnTbkLzbowZ53aS+Sdd7aKuu1tCfak69dg6tqUN1nf1NOb6tBtercHCMYzbLelhHCkXC0scskbzesRKO2f/jSE7pc54azD8ZO696LTb6vGlSztp/7VBr7q3UeZNWgum74uWTak+O3J9Mkv+7xY74tm0NeHrBcV/st7TMYvXOW3O60/my1LaY3GjMHveXD6XKDG840wI5GGpJcb/CtT9rewyujC2sFo9V9pz3RnjwioC72/HF/qwbV1SHWi5XF17/vORglRo2Eo6/cTJv4ta0buZWbetOeiGm13dn0gfi8qfuvrNEQbzL1sWjBZ9OeHLE9KaMfhxjVeZ7kbl/rkKpBNaoG1U32t/j6oesmT1kLR8dtzDZtdK9auv/MNJvvrHqp6u+sIZ9ls9GjVe+1dTtnl57w8w7XPe3J8a/pIUaPUsLg22pQzXZ1L5ZQNEvyIbvf/XrXnTS6HI5KT+Nii5tj1qZXrKtBNd3i4XTtYMJGNUzTNj1Mt3wNedGGcLSj9qRN17Rx7ckBR49WniX5vRpUd9Wgulz3+lWDalgNqosyUvQhh50+fm/UaPd+7MoHqef1tExTbJLUT5LcVINq1PQ3uUpD9mKLH2G90e7r3qwaVO82vC6rh2kb6t44my1W/qvutWXB6A7ak5n2ZGuXWR7R8uSARfKkhP9fymHEN/l7w9eHAeQsyeqtvrMD/46fdzi06Xvwn459nm0qSaN7fNWgOq0G1Savjj/0xmv8e617iy3q3h/H3oPlEQ/RbYLR9TFen97SNtdDe7J9QN1mBG8XTrIcAfq1fH148PVb+W/PjxiMkuTSpo/C0aN68EnebHkzNO4h9WB/jOdb/Jj7mJfeZ937mO0PIn1b1vM07SE62/IhukgLD2ktD37tyRHbkzJl914L80W3tmQRjta5mS6S3O7gIXXVhGMBytD+LNsv7BvbA6MVDfkv1aC6acIauPLm1V22Xz8xaWvvVnvSiPZknPXPveu6VnY4hKPjG2f7Nx32+prnY3p3pcf+W7bfH+O1BXsHrXvbPkyfJvmzGlRHOU28jBZNs5w+2LbuvT/kZnvak+61JyWEnYeHLiyREI42uZludpSqV6953hxq/5Ly1sM0yR/ZzRsP7w29HrTufdzRwzRZrmm4OdQDtYSiSZajRS928CNvu9C73UN7cneoLRy60p6Ua/BSC5NkuRP2VDEIR5veTFdJXu3oxz1N8qE0auN99ObL3hjTJH/u6MHUmYdTjx+myXKx5+qBOtnHdFsZVZiWUPRrdrOT7yLJeVemcnfcnjzJ36+Na08efw2mSd71vHm5rue1Nv0Afvj06VOnP+AOXlX9ag8qy+MTZpuupyi9x1GWQ8a7fuPhNsloFw+nMmr2Yc2G7Ic1/411K+LPTZ8q3MGr79+6ttNS9262uKarurfrjeoWpe7d7KgcG1M3tCfHD7t7vAZNt5drUKZbd7kvUyfO7vyx67WpntfjalBlDzfT8/KVcor0XZYLHT/my9vpDx98nWW/O6c2piHrs7JXTvYQkJ5muXYk39mLZWW1H8vqz31uULfTYKQ9aUR7smhSe7LHa9C7YESPw9GBbqYn5euZm4gDBaSV1V4sq7r36xE/bqeDkfakV9dAMOq5//Tlg5Z52jduIo4RkNL9xaS9CEaftSevtSdHvwZdX4N0rU0Xjg5xM110+CH1zk3U+ID0f2nHqfSbPESHfXu1uKyr0J4cPyC96uo1qOe1Nl04OvhDqkubir2q57VNHptf926yXCNy26GP1etQrj1pxDW4TPJzhzoeiyQvvZUmHB3rIXWW9m9Lf5/k/zqwyV6f6t7Hel6fpf1TMosk/xXKtScNuQaz0vG4bvk1WE1lTrWWwtExH1LnSf7b0l7fmyRndkltbf2blBGHNo4ivc9yGu3KldSeNOwajLKc6mzjKNLrel5r04WjxtxQV6XX15ae/HXp3V2YRmv/iEMZRXrVksb8Pss9hM7VPe1Jg6/BNMtRpHctugY/OclAOGpqj2OS5KcG31DX5cE00rPoXP27LI3564aGpPss10AMndGnPWnRNRi36BrcuXOEoybfUHcPbqg3DXlQPbyBjvVgOkSPctHzurd6oK5CUhOmZm4fhKKpFkJ70vJr8K4h1+B9n65BW3X++JBtlDOPzrM8T+iQG7LdZ3mUwGVTehRrbtm/9vbxax61cV3WFnS9/q3q3vMD/rOLB3XvpiHlsE7deNfUt3wetCfnB76mjWtPGnANLrLfXcW/dA0uk1w17RqUdmaa3Zyp2Jm99oSjzRq20Y4q0uc9ulm5eUyb8XndGz2oe/s4N2uW5bleFll3oz25LYFIe/L1azB8UP77atNX5+W5BsJRb26ssywXXg7LjXX6yJ7I6tykuyzPTLoxtMoGjfrZg6/TPG5kc3UO26r+zUr9s7hae+Ia/H0NHt5X61yD1b3lGghHfKdneJbko14DR6p70UhrT9hpp2ToGghHAAC94201AADhCABAOAIAEI4AAIQjAADhCABAOAIAEI4AAIQjAADhCABAOAIAEI4AAIQjAADhCABAOAIAEI4AAIQjAADhCABAOAIAEI4AAIQjAADhCABAOAIAEI4AABCOAACEIwAA4QgAQDgCABCOAACEIwAA4QgAQDgCABCOAACEIwAA4QgAQDgCABCOAACEIwAA4QgAQDgCABCOAACEIwAA4QgAQDgCABCOAACEIwAA4QgAAOEIAEA4AgAQjgAAhCMAAOEIAEA4AgAQjgAAhCMAAOEIAEA4AgAQjgAAhCMAAOEIAEA4AgAQjgAAhCMAAOEIAEA4AgAQjgAAhCMAAOEIAEA4AgAQjgAAhCMAAIQjAADhCABAOAIAEI4AAIQjAADhCABAOAIAEI4AAIQjAADhCADgKP4/PnJhU4gpKvYAAAAASUVORK5CYII=;" vertex="1" parent="fOJVgubYsdkSzta9YjWY-42">
          <mxGeometry x="80" y="170" width="112.12" height="110" as="geometry" />
        </mxCell>
        <mxCell id="fOJVgubYsdkSzta9YjWY-120" value="&lt;font style=&quot;font-size: 18px&quot;&gt;GitHub&lt;/font&gt;" style="text;html=1;resizable=0;autosize=1;align=center;verticalAlign=middle;points=[];fillColor=none;strokeColor=none;rounded=0;" vertex="1" parent="fOJVgubYsdkSzta9YjWY-42">
          <mxGeometry x="100" y="461" width="70" height="20" as="geometry" />
        </mxCell>
        <mxCell id="fOJVgubYsdkSzta9YjWY-121" value="&lt;font style=&quot;font-size: 14px&quot;&gt;Developer&lt;/font&gt;" style="text;html=1;resizable=0;autosize=1;align=center;verticalAlign=middle;points=[];fillColor=none;strokeColor=none;rounded=0;" vertex="1" parent="fOJVgubYsdkSzta9YjWY-42">
          <mxGeometry x="60" y="603" width="80" height="20" as="geometry" />
        </mxCell>
        <mxCell id="fOJVgubYsdkSzta9YjWY-122" value="&lt;font style=&quot;font-size: 18px&quot;&gt;RDS&lt;/font&gt;" style="text;html=1;resizable=0;autosize=1;align=center;verticalAlign=middle;points=[];fillColor=none;strokeColor=none;rounded=0;" vertex="1" parent="fOJVgubYsdkSzta9YjWY-42">
          <mxGeometry x="361" y="280" width="50" height="20" as="geometry" />
        </mxCell>
        <mxCell id="fOJVgubYsdkSzta9YjWY-123" value="&lt;font style=&quot;font-size: 18px&quot;&gt;EC2&lt;/font&gt;" style="text;html=1;resizable=0;autosize=1;align=center;verticalAlign=middle;points=[];fillColor=none;strokeColor=none;rounded=0;" vertex="1" parent="fOJVgubYsdkSzta9YjWY-42">
          <mxGeometry x="440" y="454" width="50" height="20" as="geometry" />
        </mxCell>
        <mxCell id="fOJVgubYsdkSzta9YjWY-124" value="&lt;font style=&quot;font-size: 18px&quot;&gt;ALB&lt;/font&gt;" style="text;html=1;resizable=0;autosize=1;align=center;verticalAlign=middle;points=[];fillColor=none;strokeColor=none;rounded=0;" vertex="1" parent="fOJVgubYsdkSzta9YjWY-42">
          <mxGeometry x="699.5" y="454" width="50" height="20" as="geometry" />
        </mxCell>
        <mxCell id="fOJVgubYsdkSzta9YjWY-132" style="edgeStyle=orthogonalEdgeStyle;rounded=0;orthogonalLoop=1;jettySize=auto;html=1;strokeWidth=5;" edge="1" parent="fOJVgubYsdkSzta9YjWY-42" source="fOJVgubYsdkSzta9YjWY-125">
          <mxGeometry relative="1" as="geometry">
            <mxPoint x="725" y="370" as="targetPoint" />
          </mxGeometry>
        </mxCell>
        <mxCell id="fOJVgubYsdkSzta9YjWY-125" value="&lt;font style=&quot;font-size: 18px&quot;&gt;ACM&lt;br&gt;&lt;/font&gt;" style="text;html=1;resizable=0;autosize=1;align=center;verticalAlign=middle;points=[];fillColor=none;strokeColor=none;rounded=0;" vertex="1" parent="fOJVgubYsdkSzta9YjWY-42">
          <mxGeometry x="694.5" y="313.5" width="60" height="20" as="geometry" />
        </mxCell>
        <mxCell id="fOJVgubYsdkSzta9YjWY-126" value="&lt;font style=&quot;font-size: 18px&quot;&gt;Route53&lt;/font&gt;" style="text;html=1;resizable=0;autosize=1;align=center;verticalAlign=middle;points=[];fillColor=none;strokeColor=none;rounded=0;" vertex="1" parent="fOJVgubYsdkSzta9YjWY-42">
          <mxGeometry x="843.75" y="313.5" width="80" height="20" as="geometry" />
        </mxCell>
        <mxCell id="fOJVgubYsdkSzta9YjWY-127" value="&lt;font style=&quot;font-size: 18px&quot;&gt;Internet&lt;br&gt;Gateway&lt;br&gt;&lt;/font&gt;" style="text;html=1;resizable=0;autosize=1;align=center;verticalAlign=middle;points=[];fillColor=none;strokeColor=none;rounded=0;" vertex="1" parent="fOJVgubYsdkSzta9YjWY-42">
          <mxGeometry x="838.75" y="454" width="90" height="40" as="geometry" />
        </mxCell>
        <mxCell id="fOJVgubYsdkSzta9YjWY-128" value="&lt;font style=&quot;font-size: 18px&quot;&gt;Internet&lt;/font&gt;" style="text;html=1;resizable=0;autosize=1;align=center;verticalAlign=middle;points=[];fillColor=none;strokeColor=none;rounded=0;" vertex="1" parent="fOJVgubYsdkSzta9YjWY-42">
          <mxGeometry x="985" y="441" width="80" height="20" as="geometry" />
        </mxCell>
        <mxCell id="fOJVgubYsdkSzta9YjWY-129" value="&lt;font style=&quot;font-size: 18px&quot;&gt;S3&lt;/font&gt;" style="text;html=1;resizable=0;autosize=1;align=center;verticalAlign=middle;points=[];fillColor=none;strokeColor=none;rounded=0;" vertex="1" parent="fOJVgubYsdkSzta9YjWY-42">
          <mxGeometry x="704.5" y="640" width="40" height="20" as="geometry" />
        </mxCell>
      </root>
    </mxGraphModel>
  </diagram>
</mxfile>
